<svg width="100" height="28" viewBox="0 0 100 28" fill="none" xmlns="http://www.w3.org/2000/svg">
    <path d="M80.8076 25C78.7881 25 76.9319 24.5308 75.2388 23.5925C73.5661 22.6542 72.23 21.3486 71.2304 19.6759C70.2513 17.9828 69.7617 16.0858 69.7617 13.9847C69.7617 11.8836 70.2513 9.99675 71.2304 8.32406C72.23 6.65137 73.5661 5.34585 75.2388 4.40751C76.9319 3.46917 78.7881 3 80.8076 3C82.8271 3 84.6732 3.46917 86.3459 4.40751C88.039 5.34585 89.3649 6.65137 90.3236 8.32406C91.3027 9.99675 91.7923 11.8836 91.7923 13.9847C91.7923 16.0858 91.3027 17.9828 90.3236 19.6759C89.3445 21.3486 88.0186 22.6542 86.3459 23.5925C84.6732 24.5308 82.8271 25 80.8076 25ZM80.8076 20.2267C82.5211 20.2267 83.8878 19.6555 84.9077 18.5132C85.9481 17.3709 86.4683 15.8614 86.4683 13.9847C86.4683 12.0876 85.9481 10.5781 84.9077 9.45619C83.8878 8.31386 82.5211 7.7427 80.8076 7.7427C79.0737 7.7427 77.6866 8.30366 76.6463 9.42559C75.6263 10.5475 75.1164 12.0672 75.1164 13.9847C75.1164 15.8818 75.6263 17.4015 76.6463 18.5438C77.6866 19.6657 79.0737 20.2267 80.8076 20.2267Z" fill="#3566A7"/>
    <path d="M61.3655 10.0988C60.9779 9.38482 60.417 8.84425 59.6826 8.47707C58.9687 8.0895 58.1221 7.89571 57.143 7.89571C55.4499 7.89571 54.0934 8.45668 53.0734 9.5786C52.0535 10.6801 51.5435 12.159 51.5435 14.0153C51.5435 15.994 52.0739 17.5443 53.1346 18.6662C54.2158 19.7678 55.6947 20.3185 57.5714 20.3185C58.8565 20.3185 59.9376 19.9921 60.8148 19.3394C61.7123 18.6866 62.3651 17.7483 62.773 16.5244H56.1333V12.669H67.5157V17.5341C67.1282 18.8396 66.4652 20.0533 65.5269 21.1753C64.6089 22.2972 63.436 23.2049 62.0081 23.8985C60.5802 24.592 58.9687 24.9388 57.1736 24.9388C55.0521 24.9388 53.155 24.4799 51.4823 23.5619C49.8301 22.6236 48.5347 21.3283 47.5964 19.676C46.6785 18.0237 46.2195 16.1368 46.2195 14.0153C46.2195 11.8939 46.6785 10.007 47.5964 8.35468C48.5347 6.68199 49.8301 5.38667 51.4823 4.46873C53.1346 3.53039 55.0215 3.06122 57.143 3.06122C59.7132 3.06122 61.8755 3.68338 63.6298 4.9277C65.4045 6.17202 66.5774 7.89571 67.1485 10.0988H61.3655Z" fill="#3566A7"/>
    <path d="M32.9758 25C30.9564 25 29.1001 24.5308 27.407 23.5925C25.7343 22.6542 24.3982 21.3486 23.3986 19.6759C22.4195 17.9828 21.9299 16.0858 21.9299 13.9847C21.9299 11.8836 22.4195 9.99675 23.3986 8.32406C24.3982 6.65137 25.7343 5.34585 27.407 4.40751C29.1001 3.46917 30.9564 3 32.9758 3C34.9953 3 36.8414 3.46917 38.5141 4.40751C40.2072 5.34585 41.5331 6.65137 42.4918 8.32406C43.471 9.99675 43.9605 11.8836 43.9605 13.9847C43.9605 16.0858 43.471 17.9828 42.4918 19.6759C41.5127 21.3486 40.1868 22.6542 38.5141 23.5925C36.8414 24.5308 34.9953 25 32.9758 25ZM32.9758 20.2267C34.6893 20.2267 36.056 19.6555 37.076 18.5132C38.1163 17.3709 38.6365 15.8614 38.6365 13.9847C38.6365 12.0876 38.1163 10.5781 37.076 9.45619C36.056 8.31386 34.6893 7.7427 32.9758 7.7427C31.2419 7.7427 29.8548 8.30366 28.8145 9.42559C27.7946 10.5475 27.2846 12.0672 27.2846 13.9847C27.2846 15.8818 27.7946 17.4015 28.8145 18.5438C29.8548 19.6657 31.2419 20.2267 32.9758 20.2267Z" fill="#3566A7"/>
    <path d="M13.2323 20.7469H20.0862V24.7858H8V3.30597H13.2323V20.7469Z" fill="#3566A7"/>
</svg>
